# xmcd
#
# Track frame offsets: 
#        150
#        15513
#        43222
#        66467
#        94883
#        132825
#        150750
#        166200
#        190266
#
# Disc length: 2847 seconds
#
# Revision: 0
# Processed by: cddbd v1.5.1PL2 Copyright (c) Steve Scherf et al.
# Submitted via: ExactAudioCopy v0.95b4
#
DISCID=6e0b1d09
DTITLE=Robbie Laws - Takin' the Night Train
DYEAR=1998
DGENRE=Blues
TTITLE0=Thank You Mr Earl
TTITLE1=Causin' Of My Cryin'
TTITLE2=Takin' The Night Train
TTITLE3=Blue Mood
TTITLE4=Wholesale Lover
TTITLE5=Texas Crude
TTITLE6=You Don't Love Me No More
TTITLE7=Sweet Potato
TTITLE8=Talkin' Blues
EXTD=
EXTT0=
EXTT1=
EXTT2=
EXTT3=
EXTT4=
EXTT5=
EXTT6=
EXTT7=
EXTT8=
PLAYORDER=
